<?xml version="1.0" encoding="iso-8859-1"?>
<!-- Generator: Adobe Illustrator 19.0.0, SVG Export Plug-In . SVG Version: 6.00 Build 0)  -->
<svg version="1.1" id="Capa_1" xmlns="http://www.w3.org/2000/svg" xmlns:xlink="http://www.w3.org/1999/xlink" x="0px" y="0px"
	 viewBox="0 0 512 512" style="enable-background:new 0 0 512 512;" xml:space="preserve">
<polygon style="fill:#1DE8F1;" points="256,122 147.074,97.537 136,62 256,0 376,62 363.497,98.251 "/>
<polygon style="fill:#1BD9DE;" points="256,122 136,62 136,208.364 150.971,234.485 256,287 286,243.89 286,165.154 "/>
<polygon style="fill:#15B7BE;" points="256,122 256,287 361,234.5 376,208.4 376,62 "/>
<path style="fill:#1DE8F1;" d="M207.951,173c-5.101-6.601-14.401-7.8-21-3.001L136,208.364V227l14.971,7.485L204.95,194
	C211.551,188.899,213.051,179.599,207.951,173z"/>
<path style="fill:#1BD9DE;" d="M303.999,173c-5.099,6.599-3.6,15.899,3.001,21l54,40.499l15-7.5v-18.6l-51-38.401
	C318.401,165.2,309.101,166.399,303.999,173z"/>
<polygon style="fill:#FD4E26;" points="376,347 267.074,322.537 256,287 376,227 496,287 483.497,323.251 "/>
<polygon style="fill:#FD3018;" points="376,347 256,287 256,433.364 270.971,459.485 376,512 406,468.89 406,390.154 "/>
<polygon style="fill:#E61E14;" points="376,347 376,512 481,459.5 496,433.4 496,287 "/>
<path style="fill:#FD4E26;" d="M327.951,398c-5.101-6.601-14.401-7.8-21-3.001L256,433.364V452l14.971,7.485L324.95,419
	C331.551,413.899,333.051,404.599,327.951,398z"/>
<path style="fill:#FD3018;" d="M423.999,398c-5.099,6.599-3.6,15.899,3.001,21l54,40.499l15-7.5v-18.6l-51-38.401
	C438.401,390.2,429.101,391.399,423.999,398z"/>
<polygon style="fill:#FCBF29;" points="136,347 27.074,322.537 16,287 136,227 256,287 243.497,323.251 "/>
<polygon style="fill:#FEA832;" points="136,347 16,287 16,433.364 30.971,459.485 136,512 166,468.89 166,390.154 "/>
<polygon style="fill:#FE9923;" points="136,347 136,512 241,459.5 256,433.4 256,287 "/>
<path style="fill:#FCBF29;" d="M87.951,398c-5.101-6.601-14.401-7.8-21-3.001L16,433.364V452l14.971,7.485L84.95,419
	C91.551,413.899,93.051,404.599,87.951,398z"/>
<path style="fill:#FEA832;" d="M183.999,398c-5.099,6.599-3.6,15.899,3.001,21l54,40.499l15-7.5v-18.6l-51-38.401
	C198.401,390.2,189.101,391.399,183.999,398z"/>
<g>
</g>
<g>
</g>
<g>
</g>
<g>
</g>
<g>
</g>
<g>
</g>
<g>
</g>
<g>
</g>
<g>
</g>
<g>
</g>
<g>
</g>
<g>
</g>
<g>
</g>
<g>
</g>
<g>
</g>
</svg>
