<svg id="Layer_1_1_" enable-background="new 0 0 96 96" height="512" viewBox="0 0 96 96" width="512" xmlns="http://www.w3.org/2000/svg"><path d="m3.03 44c-.02-.33-.03-.66-.03-1 0-.44.02-.88.03-1.31l6.28-2.72c.43-2.77 1.31-5.4 2.55-7.81l-3.49-5.9c.48-.73 1-1.43 1.54-2.11l6.68 1.49c1.93-1.94 4.18-3.57 6.65-4.83l.64-6.82c.81-.3 1.64-.57 2.49-.8l4.52 5.14c1.34-.22 2.71-.33 4.11-.33s2.77.11 4.11.33l4.52-5.14c.85.23 1.68.5 2.49.8l.64 6.82c2.47 1.26 4.72 2.89 6.65 4.83l6.68-1.49c.54.68 1.06 1.38 1.54 2.11l-3.49 5.9c1.24 2.41 2.12 5.04 2.55 7.81l6.28 2.72c.01.43.03.87.03 1.31 0 .34-.01.67-.03 1z" fill="#63b2b9"/><path d="m67 44v4l9 13h-9v9c0 2.21-1.79 4-4 4h-16.94c-.02.02-.04.04-.06.06v6.94h-22v-6.94c-12.25-4.49-21-16.25-21-30.06h.03 63.94z" fill="#f9be3c"/><path d="m49 43v1h-14v-1-14c7.73 0 14 6.27 14 14z" fill="#f68250"/><path d="m35 43v1h-14v-1c0-7.73 6.27-14 14-14z" fill="#f68250"/><path d="m54 43v1h-5v-1c0-7.73-6.27-14-14-14s-14 6.27-14 14v1h-5v-1c0-10.49 8.51-19 19-19s19 8.51 19 19z" fill="#e6e6e6"/><path d="m93 31v10c-.78 0-1.56-.03-2.34-.08l-1.31-5.12c-1.91-.2-3.76-.57-5.56-1.07l-3.19 4.25c-1.47-.5-2.9-1.07-4.28-1.72l.74-5.22c-1.71-.92-3.33-1.97-4.86-3.15l-4.58 2.71c-1.15-.99-2.24-2.03-3.26-3.14l2.67-4.52c-1.3-1.54-2.46-3.19-3.47-4.95l-5.28.76c-.66-1.28-1.25-2.61-1.77-3.97l4.2-3.14c-.66-2-1.14-4.08-1.41-6.22l-5.17-1.33c-.05-.69-.09-1.39-.11-2.09h9.98.02c.52 15.55 13.3 28 28.98 28z" fill="#e6646e"/><path d="m49 44v17l3 3v10h11c2.209 0 4-1.791 4-4v-9h9l-9-13-.03-4z" fill="#f68250"/><path d="m93 31c-15.477 0-29-12.523-29-28h29z" fill="#d2d2d2"/><circle cx="39" cy="40" fill="#8c645a" r="1"/><circle cx="31" cy="40" fill="#8c645a" r="1"/><path d="m37 82c-.552 0-1-.447-1-1v-20c0-.266.105-.52.293-.707l7.379-7.379c.208-.209.328-.498.328-.793 0-.618-.503-1.121-1.121-1.121-.3 0-.581.116-.793.328-1.893 1.893-4.409 2.936-7.086 2.936s-5.193-1.043-7.086-2.936c-.212-.212-.493-.328-.793-.328-.618 0-1.121.503-1.121 1.121 0 .295.12.584.328.793l7.379 7.379c.188.187.293.441.293.707v16c0 .553-.448 1-1 1s-1-.447-1-1v-15.586l-7.086-7.086c-.581-.581-.914-1.385-.914-2.207 0-1.721 1.4-3.121 3.121-3.121.834 0 1.618.324 2.207.914 1.515 1.516 3.529 2.35 5.672 2.35s4.157-.834 5.672-2.35c.589-.59 1.373-.914 2.207-.914 1.721 0 3.121 1.4 3.121 3.121 0 .822-.333 1.626-.914 2.207l-7.086 7.086v19.586c0 .553-.448 1-1 1z" fill="#e6e6e6"/><path d="m38 89v1c0 .83-.34 1.58-.88 2.12s-1.29.88-2.12.88c-1.66 0-3-1.34-3-3v-1z" fill="#e6646e"/><path d="m47 81c1.1 0 2 .9 2 2 0 .55-.22 1.05-.59 1.41-.36.37-.86.59-1.41.59h-24c-1.1 0-2-.9-2-2 0-.55.22-1.05.59-1.41.36-.37.86-.59 1.41-.59h1 22z" fill="#f68250"/><path d="m47 85c1.1 0 2 .9 2 2 0 .55-.22 1.05-.59 1.41-.36.37-.86.59-1.41.59h-9-6-9c-1.1 0-2-.9-2-2 0-.55.22-1.05.59-1.41.36-.37.86-.59 1.41-.59z" fill="#e67645"/><g fill="#f7aa3b"><circle cx="17" cy="49" r="1"/><circle cx="13" cy="49" r="1"/><circle cx="9" cy="49" r="1"/><path d="m20.856 68c-.179 0-.361-.048-.524-.149-5.405-3.337-9.562-8.492-11.705-14.516-.186-.521.086-1.092.606-1.277.519-.184 1.092.086 1.278.607 1.991 5.596 5.852 10.385 10.871 13.484.47.29.616.906.326 1.376-.189.307-.517.475-.852.475z"/></g><path d="m87 21c-7.168 0-13-5.832-13-13 0-.553.448-1 1-1s1 .447 1 1c0 6.065 4.935 11 11 11 .552 0 1 .447 1 1s-.448 1-1 1z" fill="#e6e6e6"/><path d="m84 13c-.256 0-.512-.098-.707-.293-.391-.391-.391-1.023 0-1.414l4.5-4.5c.391-.391 1.023-.391 1.414 0s.391 1.023 0 1.414l-4.5 4.5c-.195.195-.451.293-.707.293z" fill="#e6e6e6"/><path d="m35 44c-.552 0-1-.447-1-1v-14c0-.553.448-1 1-1s1 .447 1 1v14c0 .553-.448 1-1 1z" fill="#e67645"/><path d="m59 55c-1.813 0-3.507-.839-4.77-2.361-.353-.426-.293-1.056.132-1.408.425-.354 1.056-.293 1.408.131.876 1.056 2.023 1.638 3.23 1.638s2.354-.582 3.23-1.639c.354-.425.984-.484 1.408-.131.425.353.484.982.132 1.408-1.263 1.523-2.957 2.362-4.77 2.362z" fill="#8c645a"/><path d="m67 68h-6c-2.757 0-5-2.243-5-5 0-.553.448-1 1-1s1 .447 1 1c0 1.654 1.346 3 3 3h6c.552 0 1 .447 1 1s-.448 1-1 1z" fill="#8c645a"/><path d="m82 46h-2v-2c0-.553-.448-1-1-1s-1 .447-1 1v2h-2c-.552 0-1 .447-1 1s.448 1 1 1h2v2c0 .553.448 1 1 1s1-.447 1-1v-2h2c.552 0 1-.447 1-1s-.448-1-1-1z" fill="#d2d2d2"/><path d="m91 53h-2v-2c0-.553-.448-1-1-1s-1 .447-1 1v2h-2c-.552 0-1 .447-1 1s.448 1 1 1h2v2c0 .553.448 1 1 1s1-.447 1-1v-2h2c.552 0 1-.447 1-1s-.448-1-1-1z" fill="#d2d2d2"/></svg>